<?xml version="1.0" encoding="UTF-8"?>
<svg width="192" height="192" viewBox="0 0 192 192" fill="none" xmlns="http://www.w3.org/2000/svg">
  <rect width="192" height="192" rx="96" fill="#121212"/>
  <path d="M130.667 73.3333C130.667 84.3792 121.713 93.3333 110.667 93.3333C106.235 93.3333 102.159 91.9391 98.8228 89.5517L86.1772 96.5816C86.3957 98.1081 86.5092 99.676 86.5092 101.282C86.5092 102.888 86.3957 104.455 86.1772 105.982L98.8228 113.012C102.159 110.624 106.235 109.23 110.667 109.23C121.713 109.23 130.667 118.184 130.667 129.23C130.667 140.276 121.713 149.23 110.667 149.23C99.6208 149.23 90.6667 140.276 90.6667 129.23C90.6667 127.624 90.7801 126.057 90.9986 124.53L78.3531 117.5C75.0167 119.888 70.941 121.282 66.5092 121.282C55.4633 121.282 46.5092 112.328 46.5092 101.282C46.5092 90.2359 55.4633 81.2818 66.5092 81.2818C70.941 81.2818 75.0167 82.6759 78.3531 85.0633L90.9986 78.0334C90.7801 76.5069 90.6667 74.9391 90.6667 73.3333C90.6667 62.2874 99.6208 53.3333 110.667 53.3333C121.713 53.3333 130.667 62.2874 130.667 73.3333Z" fill="#5883C6"/>
</svg>