<?xml version="1.0" encoding="UTF-8"?>
<svg width="192" height="192" viewBox="0 0 192 192" fill="none" xmlns="http://www.w3.org/2000/svg">
  <rect width="192" height="192" rx="96" fill="#121212"/>
  <path d="M96 61.3333C89.3726 61.3333 84 66.706 84 73.3333V84H73.3333C66.706 84 61.3333 89.3726 61.3333 96C61.3333 102.627 66.706 108 73.3333 108H84V118.667C84 125.294 89.3726 130.667 96 130.667C102.627 130.667 108 125.294 108 118.667V108H118.667C125.294 108 130.667 102.627 130.667 96C130.667 89.3726 125.294 84 118.667 84H108V73.3333C108 66.706 102.627 61.3333 96 61.3333Z" fill="#FFE066"/>
</svg>