<?xml version="1.0" encoding="UTF-8"?>
<svg width="512" height="512" viewBox="0 0 512 512" fill="none" xmlns="http://www.w3.org/2000/svg">
  <rect width="512" height="512" rx="128" fill="#121212"/>
  <path d="M256 128C213.072 128 176.768 152.32 158.72 187.904L85.504 261.12C79.872 266.752 79.872 276.224 85.504 281.856L112.128 308.48C117.76 314.112 127.232 314.112 132.864 308.48L183.04 258.304C186.624 269.824 192.512 280.32 200.192 289.28L149.888 339.584C144.256 345.216 144.256 354.688 149.888 360.32L176.512 386.944C182.144 392.576 191.616 392.576 197.248 386.944L259.584 324.608C297.216 344.192 343.552 337.152 373.76 306.944C395.52 285.184 405.504 254.976 403.456 226.304L361.472 268.288C350.72 279.04 333.312 279.04 322.56 268.288L304.512 250.24C293.76 239.488 293.76 222.08 304.512 211.328L346.496 169.344C317.824 167.296 287.616 177.28 265.856 199.04C261.248 203.648 257.28 208.512 253.952 213.632L228.352 188.032C236.8 180.864 246.272 175.872 256 173.056V128Z" fill="#FFE066"/>
</svg>