<svg width="744" height="476" viewBox="0 0 744 476" fill="none" xmlns="http://www.w3.org/2000/svg">
<path d="M272.625 64.5577C272.895 63.5917 272.557 62.1297 271.875 61.3077C270.516 59.6697 267.568 59.6287 239.878 60.8597C231.353 61.2377 222.777 61.6077 220.819 61.6807C218.862 61.7527 216.508 62.3757 215.589 63.0627C214.048 64.2147 207.765 90.4937 189.705 171.313C187.862 179.563 185.909 186.234 185.366 186.138C184.823 186.042 184.034 184.692 183.613 183.138C182.484 178.968 161.468 93.1657 158.366 80.0597C156 70.0667 155.434 68.7397 153.311 68.2067C151.996 67.8767 143.501 67.7657 134.434 67.9597C121.298 68.2407 117.637 68.6237 116.416 69.8457C114.943 71.3187 106.976 102.755 93.6735 159.586C90.2915 174.036 87.1865 185.511 86.7745 185.086C85.7655 184.046 80.0395 161.497 68.4215 112.813C63.1055 90.5377 58.3125 71.2307 57.7685 69.9087L56.7805 67.5047L29.6205 68.2097C12.8215 68.6457 1.96847 69.3237 1.16947 69.9857C-0.944535 71.7407 -0.353537 75.8367 4.27046 91.4667C6.68646 99.6317 11.6795 116.663 15.3665 129.313C22.5395 153.927 49.5845 243.677 52.5805 252.813L54.3845 258.313L80.8815 257.97C104.951 257.658 107.523 257.461 108.96 255.816C109.831 254.82 112.683 245.075 115.299 234.159C117.915 223.244 123.165 202.296 126.966 187.609C130.768 172.922 133.878 160.66 133.878 160.359C133.878 160.059 134.315 159.813 134.849 159.813C136.235 159.813 140.414 174.072 151.387 216.24C156.672 236.549 161.407 253.934 161.91 254.872C162.412 255.81 164.298 256.799 166.1 257.07C169.933 257.646 210.287 256.923 213.701 256.218C217.169 255.502 218.836 250.89 231.519 206.931C237.807 185.141 249.518 144.588 257.544 116.813C265.569 89.0377 272.356 65.5227 272.625 64.5577Z" fill="#5883C6"/>
<path fill-rule="evenodd" clip-rule="evenodd" d="M343.938 103.739C365.496 107.863 378.362 120.638 382.728 142.255C384.775 152.391 386.307 249.615 384.474 253.041C383.311 255.213 382.909 255.255 363.299 255.255H343.309L342.334 252.69C341.798 251.279 341.359 247.853 341.359 245.075V240.026L335.022 245.954C327.436 253.05 321.852 255.85 312.346 257.325C300.655 259.139 282.989 255.898 273.879 250.267C269.135 247.335 262.476 239.775 260.294 234.842C259.257 232.496 257.865 227.41 257.201 223.54C254.134 205.655 263.877 185.153 279.145 177.364C286.118 173.807 299.141 170.616 318.359 167.758C328.534 166.244 337.422 164.557 338.109 164.008C339.881 162.593 339.699 151.813 337.842 148.222C334.791 142.322 323.964 139.606 315.849 142.706C310.884 144.602 307.448 148.439 304.834 155.005C302.745 160.251 302.338 160.277 286.051 156.213C268.646 151.87 267.436 151.41 266.805 148.897C265.189 142.455 272.785 125.09 280.768 116.979C286.722 110.929 296.244 105.873 305.497 103.848C314.13 101.959 334.335 101.901 343.938 103.739ZM327.859 193.729C312.505 197.094 305.057 201.193 303.233 207.282C300.992 214.76 304.603 220.352 312.936 222.309C327.061 225.628 340.359 214.15 340.359 198.641V192.255L337.109 192.334C335.321 192.378 331.159 193.006 327.859 193.729Z" fill="#F7B72C"/>
<path d="M463.486 84.0155C463.746 74.1015 463.561 65.2795 463.074 64.4095C461.916 62.3405 458.031 62.4745 436.866 65.3095C423.389 67.1145 419.675 67.9455 418.616 69.3925C417.64 70.7275 417.288 75.5355 417.288 87.5185V103.828H407.41C400.495 103.828 397.207 104.22 396.447 105.136C394.759 107.171 394.433 141.36 396.086 143.023C396.917 143.858 400.833 144.454 406.95 144.678L416.516 145.029L415.813 179.178C415.05 216.24 415.58 223.359 419.785 232.581C424.812 243.605 435.485 251.835 449.495 255.488C460.749 258.423 491.471 257.016 495.131 253.398C496.252 252.29 496.261 248.974 495.185 233.379C493.699 211.841 493.957 212.321 484.664 213.874C473.221 215.785 465.842 212.091 464.207 203.631C462.836 196.539 463.076 147.44 464.488 146.028C465.308 145.208 470.157 144.828 479.797 144.828C490.441 144.828 494.382 144.478 495.847 143.402C497.637 142.086 497.782 140.702 497.713 125.652C497.672 116.674 497.325 108.09 496.944 106.578L496.25 103.828L481.019 103.812C472.642 103.804 465.164 103.402 464.401 102.919C463.272 102.204 463.101 98.6815 463.486 84.0155Z" fill="#EC5527"/>
<path fill-rule="evenodd" clip-rule="evenodd" d="M591.882 108.385C611.781 112.601 624.116 124.409 629.67 144.561C631.716 151.983 631.848 154.952 632.23 202.217C632.604 248.458 632.507 252.187 630.896 253.967C629.302 255.729 627.625 255.886 610.437 255.886C596.659 255.886 591.451 255.556 590.716 254.636C590.166 253.949 589.397 250.741 589.005 247.507L588.294 241.628L583.132 246.709C576.391 253.343 568.73 256.794 558.438 257.831C539.372 259.753 523.311 255.065 514.183 244.912C507.966 237.997 505.962 231.867 506.001 219.886C506.053 203.795 511.598 191.862 522.18 185.072C530.046 180.025 539.239 177.141 562.692 172.363C574.872 169.882 585.092 167.595 585.404 167.282C586.799 165.879 585.622 155.564 583.778 153.031C580.446 148.454 573.827 145.7 567.207 146.136C559.749 146.627 556.827 148.799 552.678 156.932C550.868 160.482 548.984 163.526 548.492 163.698C547.228 164.139 519.643 157.93 515.72 156.321C511.645 154.65 511.455 151.628 514.856 142.592C519.973 128.999 525.272 121.789 534.97 115.226C539.45 112.193 548.637 108.772 555.47 107.591C561.787 106.498 585.41 107.014 591.882 108.385ZM575.411 195.49C557.875 199.894 550.47 205.509 550.47 214.399C550.47 229.553 573.316 231.19 583.055 216.733C588.058 209.307 590.269 193.894 586.411 193.342C585.553 193.219 580.603 194.186 575.411 195.49Z" fill="#F7B72C"/>
<path d="M642.053 19.6314C645.898 6.84641 646.017 4.9664 643.193 1.6784C641.535 -0.251597 637.467 -0.574603 634.749 1.0094C633.786 1.5694 629.224 7.06839 624.61 13.2284C619.997 19.3884 612.111 29.6034 607.087 35.9284C594.243 52.0994 586 63.8674 586 66.0334C586 68.8074 589.428 70.5854 607.201 77.0314C616.116 80.2654 624.007 83.5064 624.735 84.2344C625.833 85.3334 625.628 87.3344 623.531 95.9934C620.014 110.507 620.119 111.629 625.622 118.313C628.165 121.401 630.562 123.928 630.95 123.928C631.338 123.928 637.245 116.888 644.077 108.284C650.91 99.6804 658.41 90.3424 660.745 87.5344C663.08 84.7264 666.647 80.0434 668.671 77.1274C671.805 72.6124 672.211 71.4304 671.409 69.1504C670.188 65.6774 666.079 63.4514 648.924 56.9704C641.171 54.0414 634.581 50.9994 634.278 50.2104C633.695 48.6914 635.776 40.5094 642.053 19.6314Z" fill="#EC5527"/>
<path d="M703.089 144.731C707.835 134.915 708.015 131.877 704.084 127.945C697.585 121.446 692.986 124.888 679.259 146.522C666.125 167.223 663.575 174.59 668.007 179.022C671.683 182.698 679.381 181.359 683.314 176.359C688.289 170.034 699.604 151.937 703.089 144.731Z" fill="#F7B72C"/>
<path d="M740.159 200.695C744.574 196.313 743.999 190.103 738.935 187.485C737.379 186.68 735.296 186.034 734.307 186.048C732.682 186.072 717.6 191.73 693.769 201.255C688.964 203.176 683.476 205.813 681.574 207.116C675.663 211.167 674.343 216.976 678.29 221.565C681.754 225.591 687.642 225.885 697.535 222.523C707.827 219.026 736.468 204.359 740.159 200.695Z" fill="#F7B72C"/>
<path d="M113.009 302.108C111.19 299.139 108.664 296.429 107.194 295.87C104.127 294.704 102.972 294.708 100.033 295.892C96.9306 297.141 94.3816 301.465 94.5456 305.2C94.6226 306.95 98.9746 318.689 104.217 331.287C109.459 343.885 113.544 354.397 113.294 354.646C113.045 354.895 98.8676 352.314 81.7896 348.911C54.5406 343.48 50.3066 342.865 47.2136 343.886C40.6496 346.052 38.8196 354.945 43.9896 359.554C47.7506 362.906 58.3886 369.106 76.9746 378.777C86.7366 383.857 94.7246 388.407 94.7246 388.889C94.7246 389.371 90.2026 393.232 84.6756 397.469C74.3456 405.387 71.7246 408.663 71.7246 413.658C71.7246 416.945 74.8836 420.303 78.8556 421.24C82.1876 422.026 85.7286 420.196 115.225 402.45C127.875 394.84 140.639 387.211 143.589 385.498C149.904 381.83 153.725 376.767 153.725 372.069C153.725 366.478 145.607 351.854 126.138 322.37C120.686 314.114 114.778 304.996 113.009 302.108Z" fill="#F7B72C"/>
<path d="M151.87 444.151C165.482 428.414 167.221 422.362 159.338 418.163C158.136 417.524 156.268 417 155.186 417C152.746 417 115.439 445.229 108.272 452.499C101.509 459.358 101.337 461.973 107.272 467.644C120.366 480.154 121.029 479.805 151.87 444.151Z" fill="#EC5527"/>
<path d="M428.8 282.801C428.8 281.43 428.26 279.768 427.6 279.108C426.266 277.774 386.859 277.583 378.89 278.872C373.162 279.798 371.295 282.227 369.845 290.638C366.591 309.503 348.986 401.794 348.258 403.801C347.98 404.567 347.536 404.977 347.27 404.712C347.005 404.446 341.821 384.469 335.751 360.318C319.43 295.387 316.779 285.598 314.956 283.524C313.417 281.773 312.139 281.683 296.806 282.247C283.793 282.726 280.081 283.171 279.213 284.357C278.609 285.184 276.862 290.709 275.331 296.634C270.349 315.917 250.758 389.214 248.586 396.694C247.423 400.701 246.138 403.626 245.731 403.194C245.324 402.761 240.115 375.888 234.157 343.474C227.275 306.043 222.771 283.89 221.811 282.758C220.444 281.146 217.871 280.956 194.8 280.766C180.775 280.65 168.288 280.889 167.05 281.299C165.489 281.815 164.8 282.834 164.8 284.627C164.8 287.356 182.974 359.657 203.958 440.408C211.35 468.855 212.965 473.541 215.646 474.307C216.556 474.567 228.196 474.921 241.514 475.094C265.089 475.4 265.785 475.352 267.864 473.28C270.468 470.686 275.495 454.649 284.878 419.006C293.545 386.081 296.77 375.455 297.761 376.551C298.188 377.022 301.076 387.308 304.18 399.408C319.811 460.343 322.817 471.27 324.449 473.072C326.1 474.897 327.589 474.983 352.462 474.704C374.705 474.453 378.972 474.168 380.297 472.842C381.157 471.98 383.214 466.13 384.868 459.842C394.137 424.598 428.8 284.909 428.8 282.801Z" fill="#EC5527"/>
<path fill-rule="evenodd" clip-rule="evenodd" d="M511.547 305.789C522.981 308.148 530.013 311.706 536.622 318.476C543.36 325.377 547.617 334.157 549.941 345.945C551.562 354.167 551.874 362.174 552.341 407.545C552.845 456.535 552.771 459.792 551.11 461.295C549.617 462.646 546.315 462.895 529.871 462.895C516.06 462.895 510.051 462.546 509.2 461.695C508.521 461.016 508 457.762 508 454.195C508 450.73 507.72 447.895 507.377 447.895C507.035 447.895 503.958 450.511 500.541 453.708C497.123 456.905 492.28 460.483 489.779 461.659C479.48 466.5 463.9 466.933 450.208 462.759C431.22 456.97 421 443.032 421 422.924C421 408.729 425.449 397.544 434.497 388.986C444.262 379.751 453.762 376.407 483.198 371.847C494.364 370.117 504.063 368.24 504.75 367.676C505.522 367.042 506 364.105 506 359.995C506 350.521 503.334 346.941 494.715 344.843C484.135 342.268 475.885 346.466 470.992 356.911L468.581 362.06L464.04 361.666C456.501 361.012 434.622 355.722 432.75 354.101C427.502 349.555 435.769 329.078 447.229 318.24C454.537 311.328 462.813 307.388 475.075 304.982C483.226 303.383 501.892 303.796 511.547 305.789ZM496.105 398.441C486.879 400.443 477.609 403.685 473.803 406.241C469.177 409.349 467.191 415.25 468.877 420.878C469.908 424.319 470.86 425.382 474.313 426.95C479.52 429.314 488.024 429.452 492.669 427.248C501.037 423.277 506.079 415.028 506.79 404.145C507.037 400.359 507.241 398.318 506.328 397.448C505.218 396.389 502.454 397.064 496.105 398.441Z" fill="#F7B72C"/>
<path d="M713.604 330.486C709.556 311.38 699.479 300.557 681.872 296.406C673.34 294.394 659.984 294.564 653.088 296.771C647.092 298.69 640.359 302.725 629.853 310.697L623.103 315.818V310.792C623.103 301.492 624.236 301.898 598.268 301.898C581.895 301.898 575.166 302.235 574.303 303.098C572.566 304.835 572.566 457.961 574.303 459.698C576.053 461.448 620.663 461.401 621.786 459.648C622.226 458.961 622.591 436.798 622.595 410.398C622.604 356.075 622.243 358.711 630.758 350.861C642.102 340.406 654.936 341.678 661.416 353.902L664.33 359.398L663.679 377.898C663.321 388.073 662.404 409.223 661.64 424.898C660.431 449.719 660.438 453.688 661.7 455.648C663.123 457.857 663.511 457.898 682.977 457.898C703.285 457.898 708.614 457.128 709.507 454.064C710.211 451.65 710.941 439.48 713.144 393.468C715.474 344.78 715.513 339.497 713.604 330.486Z" fill="#5883C6"/>
</svg>
