<?xml version="1.0" encoding="UTF-8"?>
<svg width="512" height="512" viewBox="0 0 512 512" fill="none" xmlns="http://www.w3.org/2000/svg">
  <rect width="512" height="512" rx="128" fill="#5883C6"/>
  <path d="M384 336C375 336 366.4 338.5 359.2 342.9L251.5 277.9C251.8 275.4 252 272.7 252 270C252 267.3 251.8 264.6 251.5 262.1L358.5 197.4C365.9 202 374.7 204.7 384 204.7C413.7 204.7 438 180.4 438 150.7C438 121 413.7 96.7 384 96.7C354.3 96.7 330 121 330 150.7C330 153.4 330.2 156.1 330.6 158.6L223.5 223.4C216.1 218.7 207.3 216 198 216C168.3 216 144 240.3 144 270C144 299.7 168.3 324 198 324C207.3 324 216.1 321.3 223.5 316.6L331.1 381.5C330.7 383.8 330.5 386.4 330.5 389C330.5 418.1 354.4 442 383.5 442C412.6 442 436.5 418.1 436.5 389C436.5 359.9 412.6 336 383.5 336H384Z" fill="white"/>
</svg>