<svg width="1420" height="350" viewBox="0 0 1420 350" fill="none" xmlns="http://www.w3.org/2000/svg">
<path d="M398.47 81.5577C398.74 80.5917 398.402 79.1297 397.72 78.3077C396.361 76.6697 393.414 76.6287 365.724 77.8597C357.199 78.2377 348.623 78.6077 346.665 78.6807C344.708 78.7527 342.354 79.3757 341.435 80.0627C339.894 81.2147 333.611 107.494 315.551 188.313C313.708 196.563 311.755 203.234 311.212 203.138C310.669 203.042 309.88 201.692 309.459 200.138C308.33 195.968 287.314 110.166 284.212 97.0597C281.846 87.0667 281.28 85.7397 279.157 85.2067C277.842 84.8767 269.347 84.7657 260.28 84.9597C247.144 85.2407 243.483 85.6237 242.262 86.8457C240.789 88.3187 232.822 119.755 219.519 176.586C216.137 191.036 213.032 202.511 212.62 202.086C211.611 201.046 205.885 178.497 194.267 129.813C188.951 107.538 184.158 88.2307 183.614 86.9087L182.626 84.5047L155.466 85.2097C138.667 85.6457 127.814 86.3237 127.015 86.9857C124.901 88.7407 125.492 92.8367 130.116 108.467C132.532 116.632 137.525 133.663 141.212 146.313C148.385 170.927 175.43 260.677 178.426 269.813L180.23 275.313L206.727 274.97C230.797 274.658 233.369 274.461 234.806 272.816C235.677 271.82 238.529 262.075 241.145 251.159C243.761 240.244 249.011 219.296 252.812 204.609C256.614 189.922 259.724 177.66 259.724 177.359C259.724 177.059 260.161 176.813 260.695 176.813C262.081 176.813 266.26 191.072 277.233 233.24C282.518 253.549 287.253 270.934 287.756 271.872C288.258 272.81 290.144 273.799 291.946 274.07C295.779 274.646 336.133 273.923 339.547 273.218C343.015 272.502 344.682 267.89 357.365 223.931C363.653 202.141 375.363 161.588 383.389 133.813C391.414 106.038 398.201 82.5227 398.47 81.5577Z" fill="#5883C6"/>
<path d="M1379.81 144.637C1384.55 134.821 1384.73 131.783 1380.8 127.851C1374.3 121.352 1369.7 124.794 1355.98 146.428C1342.84 167.129 1340.29 174.496 1344.72 178.928C1348.4 182.604 1356.1 181.265 1360.03 176.265C1365.01 169.94 1376.32 151.843 1379.81 144.637Z" fill="#EC5527"/>
<path d="M1416.88 200.601C1421.29 196.219 1420.72 190.009 1415.65 187.391C1414.1 186.586 1412.01 185.94 1411.02 185.954C1409.4 185.978 1394.32 191.636 1370.49 201.161C1365.68 203.082 1360.19 205.719 1358.29 207.022C1352.38 211.073 1351.06 216.882 1355.01 221.471C1358.47 225.497 1364.36 225.791 1374.25 222.429C1384.54 218.932 1413.18 204.265 1416.88 200.601Z" fill="#EC5527"/>
<path d="M1318.78 19.6314C1322.62 6.84641 1322.74 4.9664 1319.92 1.6784C1318.26 -0.251597 1314.19 -0.574603 1311.47 1.0094C1310.51 1.5694 1305.95 7.06839 1301.33 13.2284C1296.72 19.3884 1288.84 29.6034 1283.81 35.9284C1270.97 52.0994 1262.72 63.8674 1262.72 66.0334C1262.72 68.8074 1266.15 70.5854 1283.93 77.0314C1292.84 80.2654 1300.73 83.5064 1301.46 84.2344C1302.56 85.3334 1302.35 87.3344 1300.26 95.9934C1296.74 110.507 1296.84 111.629 1302.35 118.313C1304.89 121.401 1307.29 123.928 1307.67 123.928C1308.06 123.928 1313.97 116.888 1320.8 108.284C1327.63 99.6804 1335.13 90.3424 1337.47 87.5344C1339.8 84.7264 1343.37 80.0434 1345.4 77.1274C1348.53 72.6124 1348.94 71.4304 1348.13 69.1504C1346.91 65.6774 1342.8 63.4514 1325.65 56.9704C1317.9 54.0414 1311.31 50.9994 1311 50.2104C1310.42 48.6914 1312.5 40.5094 1318.78 19.6314Z" fill="#F7B72C"/>
<path d="M1302.22 142.516C1298.18 123.41 1288.1 112.587 1270.49 108.436C1261.96 106.424 1248.6 106.594 1241.71 108.801C1235.71 110.72 1228.98 114.755 1218.47 122.727L1211.72 127.848V122.822C1211.72 113.522 1212.86 113.928 1186.89 113.928C1170.52 113.928 1163.79 114.265 1162.92 115.128C1161.19 116.865 1161.19 269.991 1162.92 271.728C1164.67 273.478 1209.28 273.431 1210.41 271.678C1210.85 270.991 1211.21 248.828 1211.22 222.428C1211.22 168.105 1210.86 170.741 1219.38 162.891C1230.72 152.436 1243.56 153.708 1250.04 165.932L1252.95 171.428L1252.3 189.928C1251.94 200.103 1251.02 221.253 1250.26 236.928C1249.05 261.749 1249.06 265.718 1250.32 267.678C1251.74 269.887 1252.13 269.928 1271.6 269.928C1291.91 269.928 1297.23 269.158 1298.13 266.094C1298.83 263.68 1299.56 251.51 1301.76 205.498C1304.09 156.81 1304.13 151.527 1302.22 142.516Z" fill="#5883C6"/>
<path fill-rule="evenodd" clip-rule="evenodd" d="M1100.27 115.822C1111.71 118.181 1118.74 121.739 1125.35 128.509C1132.08 135.41 1136.34 144.19 1138.67 155.978C1140.29 164.2 1140.6 172.207 1141.07 217.578C1141.57 266.568 1141.5 269.825 1139.83 271.328C1138.34 272.679 1135.04 272.928 1118.6 272.928C1104.78 272.928 1098.78 272.579 1097.92 271.728C1097.25 271.049 1096.72 267.795 1096.72 264.228C1096.72 260.763 1096.44 257.928 1096.1 257.928C1095.76 257.928 1092.68 260.544 1089.27 263.741C1085.85 266.938 1081 270.516 1078.5 271.692C1068.2 276.533 1052.62 276.966 1038.93 272.792C1019.94 267.003 1009.72 253.065 1009.72 232.957C1009.72 218.762 1014.17 207.577 1023.22 199.019C1032.99 189.784 1042.49 186.44 1071.92 181.88C1083.09 180.15 1092.79 178.273 1093.47 177.709C1094.25 177.075 1094.72 174.138 1094.72 170.028C1094.72 160.554 1092.06 156.974 1083.44 154.876C1072.86 152.301 1064.61 156.499 1059.72 166.944L1057.31 172.093L1052.76 171.699C1045.23 171.045 1023.35 165.755 1021.47 164.134C1016.23 159.588 1024.49 139.111 1035.95 128.273C1043.26 121.361 1051.54 117.421 1063.8 115.015C1071.95 113.416 1090.62 113.829 1100.27 115.822ZM1084.83 208.475C1075.6 210.477 1066.33 213.719 1062.53 216.275C1057.9 219.383 1055.92 225.283 1057.6 230.911C1058.63 234.352 1059.58 235.415 1063.04 236.983C1068.24 239.347 1076.75 239.486 1081.39 237.282C1089.76 233.311 1094.8 225.062 1095.51 214.179C1095.76 210.393 1095.97 208.351 1095.05 207.481C1093.94 206.422 1091.18 207.097 1084.83 208.475Z" fill="#F7B72C"/>
<path d="M1021.72 80.8214C1021.72 79.4504 1021.18 77.7884 1020.52 77.1284C1019.19 75.7944 979.784 75.6034 971.815 76.8924C966.087 77.8184 964.22 80.2474 962.77 88.6584C959.516 107.523 941.911 199.814 941.183 201.821C940.905 202.587 940.461 202.997 940.195 202.732C939.93 202.466 934.746 182.489 928.676 158.338C912.355 93.4074 909.704 83.6184 907.881 81.5444C906.342 79.7934 905.064 79.7034 889.731 80.2674C876.718 80.7464 873.006 81.1914 872.138 82.3774C871.534 83.2044 869.787 88.7294 868.256 94.6544C863.274 113.937 843.683 187.234 841.511 194.714C840.348 198.721 839.063 201.646 838.656 201.214C838.249 200.781 833.04 173.908 827.082 141.494C820.2 104.063 815.696 81.9104 814.736 80.7784C813.369 79.1664 810.796 78.9764 787.725 78.7864C773.7 78.6704 761.213 78.9094 759.975 79.3194C758.414 79.8354 757.725 80.8544 757.725 82.6474C757.725 85.3764 775.899 157.677 796.883 238.428C804.275 266.875 805.89 271.561 808.571 272.327C809.481 272.587 821.121 272.941 834.439 273.114C858.014 273.42 858.71 273.372 860.789 271.3C863.393 268.706 868.42 252.669 877.803 217.026C886.47 184.101 889.695 173.475 890.686 174.571C891.113 175.042 894.001 185.328 897.105 197.428C912.736 258.363 915.742 269.29 917.374 271.092C919.025 272.917 920.514 273.003 945.387 272.724C967.63 272.473 971.897 272.188 973.222 270.862C974.082 270 976.139 264.15 977.793 257.862C987.062 222.618 1021.72 82.9294 1021.72 80.8214Z" fill="#EC5527"/>
<path fill-rule="evenodd" clip-rule="evenodd" d="M719.136 125.427C739.035 129.643 751.37 141.451 756.924 161.603C758.97 169.025 759.102 171.994 759.484 219.259C759.858 265.5 759.761 269.229 758.15 271.009C756.556 272.771 754.879 272.928 737.691 272.928C723.913 272.928 718.705 272.598 717.97 271.678C717.42 270.991 716.651 267.783 716.259 264.549L715.548 258.67L710.386 263.751C703.645 270.385 695.984 273.836 685.692 274.873C666.626 276.795 650.565 272.107 641.437 261.954C635.22 255.039 633.216 248.909 633.255 236.928C633.307 220.837 638.852 208.904 649.434 202.114C657.3 197.067 666.493 194.183 689.946 189.405C702.126 186.924 712.346 184.637 712.658 184.324C714.053 182.921 712.876 172.606 711.032 170.073C707.7 165.496 701.081 162.742 694.461 163.178C687.003 163.669 684.081 165.841 679.932 173.974C678.122 177.524 676.238 180.568 675.746 180.74C674.482 181.181 646.897 174.972 642.974 173.363C638.899 171.692 638.709 168.67 642.11 159.634C647.227 146.041 652.526 138.831 662.224 132.268C666.704 129.235 675.891 125.814 682.724 124.633C689.041 123.54 712.664 124.056 719.136 125.427ZM702.666 212.532C685.13 216.936 677.725 222.551 677.725 231.441C677.725 246.595 700.571 248.232 710.31 233.775C715.313 226.349 717.524 210.936 713.666 210.384C712.808 210.261 707.858 211.228 702.666 212.532Z" fill="#F7B72C"/>
<path d="M588.923 101.116C589.183 91.2025 588.998 82.3805 588.511 81.5105C587.353 79.4415 583.468 79.5755 562.303 82.4105C548.826 84.2155 545.112 85.0465 544.053 86.4935C543.077 87.8285 542.725 92.6365 542.725 104.619V120.928H532.847C525.932 120.928 522.644 121.32 521.884 122.236C520.196 124.271 519.87 158.46 521.523 160.123C522.354 160.958 526.27 161.554 532.387 161.778L541.953 162.129L541.25 196.278C540.487 233.34 541.017 240.459 545.222 249.681C550.249 260.706 560.922 268.935 574.932 272.588C586.186 275.523 616.908 274.116 620.568 270.498C621.689 269.39 621.698 266.074 620.622 250.479C619.136 228.941 619.394 229.421 610.101 230.974C598.658 232.885 591.279 229.191 589.644 220.731C588.273 213.639 588.513 164.54 589.925 163.128C590.745 162.308 595.594 161.928 605.234 161.928C615.878 161.928 619.819 161.578 621.284 160.502C623.074 159.186 623.219 157.802 623.15 142.752C623.109 133.774 622.762 125.19 622.381 123.678L621.687 120.928L606.456 120.913C598.079 120.904 590.601 120.502 589.838 120.019C588.709 119.304 588.538 115.782 588.923 101.116Z" fill="#EC5527"/>
<path fill-rule="evenodd" clip-rule="evenodd" d="M469.303 120.412C490.861 124.536 503.727 137.311 508.093 158.928C510.14 169.064 511.672 266.288 509.839 269.714C508.676 271.886 508.274 271.928 488.664 271.928H468.674L467.699 269.363C467.163 267.952 466.724 264.526 466.724 261.748V256.699L460.387 262.627C452.801 269.723 447.217 272.523 437.711 273.998C426.02 275.812 408.354 272.571 399.244 266.94C394.5 264.008 387.841 256.448 385.659 251.515C384.622 249.169 383.23 244.083 382.566 240.213C379.499 222.328 389.242 201.826 404.51 194.037C411.483 190.48 424.506 187.289 443.724 184.431C453.899 182.917 462.787 181.23 463.474 180.681C465.246 179.266 465.064 168.486 463.207 164.895C460.156 158.995 449.329 156.279 441.214 159.379C436.249 161.275 432.813 165.112 430.199 171.678C428.11 176.924 427.703 176.95 411.416 172.886C394.011 168.543 392.801 168.083 392.17 165.57C390.554 159.128 398.15 141.763 406.133 133.652C412.087 127.602 421.609 122.546 430.862 120.521C439.495 118.632 459.7 118.574 469.303 120.412ZM453.224 210.402C437.87 213.767 430.422 217.866 428.598 223.955C426.357 231.433 429.968 237.025 438.301 238.982C452.426 242.301 465.724 230.823 465.724 215.314V208.928L462.474 209.007C460.686 209.051 456.524 209.679 453.224 210.402Z" fill="#F7B72C"/>
<path d="M73.0086 99.1083C71.1896 96.1393 68.6636 93.4293 67.1936 92.8703C64.1266 91.7043 62.9716 91.7083 60.0326 92.8923C56.9306 94.1413 54.3816 98.4653 54.5456 102.2C54.6226 103.95 58.9746 115.689 64.2166 128.287C69.4586 140.885 73.5436 151.397 73.2936 151.646C73.0446 151.895 58.8676 149.314 41.7896 145.911C14.5406 140.48 10.3066 139.865 7.21358 140.886C0.649583 143.052 -1.18042 151.945 3.98958 156.554C7.75058 159.906 18.3886 166.106 36.9746 175.777C46.7366 180.857 54.7246 185.407 54.7246 185.889C54.7246 186.371 50.2026 190.232 44.6756 194.469C34.3456 202.387 31.7246 205.663 31.7246 210.658C31.7246 213.945 34.8836 217.303 38.8556 218.24C42.1876 219.026 45.7286 217.196 75.2246 199.45C87.8746 191.84 100.639 184.211 103.589 182.498C109.904 178.83 113.725 173.767 113.725 169.069C113.725 163.478 105.607 148.854 86.1376 119.37C80.6856 111.114 74.7776 101.996 73.0086 99.1083Z" fill="#F7B72C"/>
<path d="M111.573 241.033C125.185 225.296 126.924 219.244 119.041 215.045C117.839 214.406 115.971 213.882 114.889 213.882C112.449 213.882 75.142 242.111 67.975 249.381C61.212 256.24 61.04 258.855 66.975 264.526C80.069 277.036 80.732 276.687 111.573 241.033Z" fill="#EC5527"/>
</svg>
